name C:\Users\u0101727\Documents\MyRepositories\upper-imu-dc\Results\main_tracking\Case_22\SHRUG01_orientations_groundFrame.mot
datacolumns 13
datarows 36
range 2.21000000 2.56000000
endheader 
time	radius_imu_[0][0]	radius_imu_[0][1]	radius_imu_[0][2]	radius_imu_[1][0]	radius_imu_[1][1]	radius_imu_[1][2]	radius_imu_[2][0]	radius_imu_[2][1]	radius_imu_[2][2]	radius_imu_x	radius_imu_y	radius_imu_z	
          2.21000000	          0.60618329	         -0.15183212	          0.78069765	         -0.17730997	          0.93110384	          0.31875824	         -0.77530832	         -0.33165140	          0.53749824	         -0.53528653	          0.89578145	          0.24542313	
          2.22000000	          0.60992522	         -0.15283987	          0.77758035	         -0.17451937	          0.93122859	          0.31993173	         -0.77300337	         -0.33083726	          0.54130628	         -0.53380256	          0.89080846	          0.24553189	
          2.23000000	          0.61207431	         -0.15400963	          0.77565848	         -0.17245985	          0.93124776	          0.32099097	         -0.77176592	         -0.33024027	          0.54343236	         -0.53353339	          0.88775772	          0.24650201	
          2.24000000	          0.61250717	         -0.15523261	          0.77507277	         -0.17120932	          0.93119887	          0.32180122	         -0.77170093	         -0.32980524	          0.54378872	         -0.53435064	          0.88683025	          0.24821182	
          2.25000000	          0.61107962	         -0.15640132	          0.77596412	         -0.17085980	          0.93111579	          0.32222712	         -0.77290919	         -0.32948751	          0.54226319	         -0.53616342	          0.88824213	          0.25056385	
          2.26000000	          0.60762611	         -0.15741470	          0.77846716	         -0.17151506	          0.93102599	          0.32213845	         -0.77548249	         -0.32925858	          0.53871671	         -0.53892828	          0.89222006	          0.25349212	
          2.27000000	          0.60198705	         -0.15818563	          0.78268059	         -0.17327059	          0.93094914	          0.32142030	         -0.77947989	         -0.32910638	          0.53301040	         -0.54264313	          0.89896093	          0.25696323	
          2.28000000	          0.59406087	         -0.15864945	          0.78862033	         -0.17617936	          0.93089724	          0.31998618	         -0.78489013	         -0.32902990	          0.52505887	         -0.54732386	          0.90856196	          0.26096888	
          2.29000000	          0.58387186	         -0.15877075	          0.79616927	         -0.18021229	          0.93087661	          0.31779279	         -0.79159155	         -0.32902975	          0.51490022	         -0.55296556	          0.92093757	          0.26550739	
          2.30000000	          0.57164040	         -0.15854580	          0.80504067	         -0.18522540	          0.93089088	          0.31485509	         -0.79932397	         -0.32909787	          0.50276812	         -0.55949277	          0.93574403	          0.27055184	
          2.31000000	          0.55783689	         -0.15799935	          0.81477249	         -0.19094639	          0.93094421	          0.31125931	         -0.80768650	         -0.32920979	          0.48914561	         -0.56670714	          0.95233668	          0.27600669	
          2.32000000	          0.54319317	         -0.15717625	          0.82476470	         -0.19699057	          0.93104357	          0.30716866	         -0.81617149	         -0.32932279	          0.47477426	         -0.57424810	          0.96978596	          0.28166337	
          2.33000000	          0.52864627	         -0.15613114	          0.83435975	         -0.20290899	          0.93119886	          0.30281449	         -0.82423362	         -0.32938085	          0.46059439	         -0.58158967	          0.98697024	          0.28717741	
          2.34000000	          0.51520670	         -0.15492029	          0.84294826	         -0.20825985	          0.93142088	          0.29846774	         -0.83137831	         -0.32932485	          0.44761060	         -0.58809643	          1.00274001	          0.29209466	
          2.35000000	          0.50377765	         -0.15359818	          0.85006804	         -0.21268301	          0.93171777	          0.29439420	         -0.83724191	         -0.32910424	          0.43671087	         -0.59314277	          1.01611447	          0.29593953	
          2.36000000	          0.49498091	         -0.15221784	          0.85546691	         -0.21595549	          0.93209181	          0.29080592	         -0.84163955	         -0.32868616	          0.42849537	         -0.59626498	          1.02645178	          0.29834393	
          2.37000000	          0.48904962	         -0.15083159	          0.85911600	         -0.21801326	          0.93253779	          0.28782546	         -0.84457130	         -0.32805961	          0.42317397	         -0.59728518	          1.03353986	          0.29916150	
          2.38000000	          0.48582143	         -0.14948913	          0.86117973	         -0.21893817	          0.93304365	          0.28547437	         -0.84619360	         -0.32723469	          0.42056373	         -0.59634866	          1.03758606	          0.29850949	
          2.39000000	          0.48482691	         -0.14823252	          0.86195707	         -0.21891839	          0.93359315	          0.28368743	         -0.84676892	         -0.32623756	          0.42018026	         -0.59385717	          1.03911734	          0.29671739	
          2.40000000	          0.48543254	         -0.14709023	          0.86181188	         -0.21819682	          0.93416930	          0.28234354	         -0.84660817	         -0.32510335	          0.42138155	         -0.59033606	          1.03883102	          0.29421469	
          2.41000000	          0.48698247	         -0.14607377	          0.86111006	         -0.21702320	          0.93475739	          0.28129974	         -0.84601951	         -0.32386890	          0.42350907	         -0.58630119	          1.03744900	          0.29141729	
          2.42000000	          0.48889340	         -0.14517873	          0.86017811	         -0.21562220	          0.93534661	          0.28041716	         -0.84527528	         -0.32256760	          0.42598103	         -0.58217784	          1.03561880	          0.28865973	
          2.43000000	          0.49068600	         -0.14439030	          0.85928964	         -0.21418202	          0.93592964	          0.27957428	         -0.84460246	         -0.32122757	          0.42832177	         -0.57828513	          1.03387924	          0.28618441	
          2.44000000	          0.49197679	         -0.14369047	          0.85866867	         -0.21285540	          0.93650143	          0.27867123	         -0.84418684	         -0.31987204	          0.43015167	         -0.57485816	          1.03266644	          0.28416356	
          2.45000000	          0.49247202	         -0.14306348	          0.85848946	         -0.21175923	          0.93705836	          0.27763222	         -0.84417376	         -0.31851917	          0.43118002	         -0.57206750	          1.03231687	          0.28271925	
          2.46000000	          0.49199007	         -0.14249746	          0.85885985	         -0.21096407	          0.93759881	          0.27641027	         -0.84465373	         -0.31717968	          0.43122746	         -0.57001155	          1.03303956	          0.28192055	
          2.47000000	          0.49050427	         -0.14198215	          0.85979452	         -0.21047806	          0.93812468	          0.27499285	         -0.84563854	         -0.31585305	          0.43027004	         -0.56868645	          1.03486715	          0.28176072	
          2.48000000	          0.48817714	         -0.14150434	          0.86119661	         -0.21023694	          0.93864290	          0.27340436	         -0.84704398	         -0.31452510	          0.42847457	         -0.56795540	          1.03761927	          0.28213076	
          2.49000000	          0.48535688	         -0.14104347	          0.86286467	         -0.21011073	          0.93916540	          0.27170174	         -0.84869440	         -0.31316943	          0.42619565	         -0.56754098	          1.04091027	          0.28280842	
          2.50000000	          0.48252039	         -0.14056980	          0.86453120	         -0.20993083	          0.93970724	          0.26996176	         -0.85035470	         -0.31175381	          0.42391797	         -0.56705787	          1.04421684	          0.28347834	
          2.51000000	          0.48016658	         -0.14004654	          0.86592553	         -0.20953316	          0.94028283	          0.26826116	         -0.85178396	         -0.31025016	          0.42214800	         -0.56609082	          1.04699783	          0.28379019	
          2.52000000	          0.47868757	         -0.13943552	          0.86684252	         -0.20880509	          0.94090158	          0.26665455	         -0.85279461	         -0.30864535	          0.42128304	         -0.56430159	          1.04883410	          0.28344427	
          2.53000000	          0.47826414	         -0.13870394	          0.86719353	         -0.20771953	          0.94156450	          0.26515824	         -0.85329714	         -0.30694871	          0.42150502	         -0.56152424	          1.04953856	          0.28227158	
          2.54000000	          0.47883052	         -0.13782934	          0.86702042	         -0.20634195	          0.94226340	          0.26374738	         -0.85331373	         -0.30519299	          0.42274450	         -0.55780296	          1.04919102	          0.28026916	
          2.55000000	          0.48012011	         -0.13680115	          0.86646992	         -0.20480847	          0.94298284	          0.26236779	         -0.85295848	         -0.30342843	          0.42472699	         -0.55335639	          1.04808727	          0.27757543	
          2.56000000	          0.48176317	         -0.13562009	          0.86574329	         -0.20328597	          0.94370376	          0.26095597	         -0.85239607	         -0.30171244	          0.42707206	         -0.54849398	          1.04663359	          0.27440633	
